Patient5_TMGait_0pt45_1_right_06_EMG.mot
version=1
nRows=33
nColumns=33
inDegrees=no
endheader
time	1LAddLong	2LGlutMax	3LGlutMed	4LIliopsoas	5LSemiMemb	6LBicFemLong	7LRecFem	8LTensFascLat	9LVastMed	10LVasLat	11LGasMed	12lGasLat	13LTibAnt	14LPeroneusLong	15LSol	16LTibPost	17RAddLong	18RGlutMax	19RGlutMed	20RIliopsoas	21RSemiMemb	22RBicFemLong	23RRecFem	24RTensFascLat	25RVastMed	26RVasLat	27RGasMed	28RGasLat	29RTibAnt	30RPeroneusLong	31RSol	32RTibPost
10.17	0.037537	0.014191	0.003052	0.018005	-0.015717	-0.029755	-0.02243	-0.1622	-0.000305	0.002747	-0.013885	0.012817	0.001984	0.022125	0.016632	-0.069427	-0.012207	-0.008545	0.41641	-0.080566	-0.002747	0.14938	-0.017395	0.050507	-0.04837	0.057068	-0.020599	-0.14435	-0.013428	-0.012665	-0.019379	-0.17731
10.171	0.0383	0.010986	0.01236	0.020447	-0.023499	-0.022278	-0.012817	-0.15106	0.007324	0.007782	-0.009308	0.006409	0.011292	0.025787	0.02182	0.013123	-0.016785	-0.012665	-0.12985	0.033112	0.051575	0.2713	-0.020599	0.072174	-0.06424	0.062866	0.006104	-0.076599	-0.011749	-0.00885	0.048981	0.0354
10.172	0.034485	0.007935	0.019531	0.021973	-0.007324	-0.02243	-0.00824	-0.1506	0.005341	0.006866	-0.01236	0.004883	-0.000153	0.020447	0.021515	-0.003967	-0.020447	-0.009918	-0.30426	-0.014648	0.009613	0.24735	-0.017548	0.06546	-0.074921	0.029144	-0.007935	-0.038605	-0.009766	-0.000763	0.11597	0.27481
10.173	0.015869	0.005341	0.017242	0.019684	0.001526	-0.025787	-0.002441	-0.12878	0.009918	0.007935	-0.016327	0.021667	0.001526	0.028076	0.020905	0.0914	-0.032959	-0.005493	-0.30716	0.13763	0.030518	0.23377	-0.016785	0.045929	-0.087585	-0.03418	-0.072632	-0.043182	-0.013885	-0.00061	0.076599	0.16159
10.174	0.029755	0.008698	0.006104	0.034485	0.001373	-0.029449	-0.003204	-0.12375	0.009918	0.015564	-0.010071	0.006714	0	0.022583	0.024567	-0.21347	-0.024567	-0.001984	-0.00061	-0.1384	0.085754	0.078278	-0.007629	-0.049744	-0.083466	-0.075989	-0.037537	-0.054626	-0.013733	0.000458	0.01297	-0.093384
10.175	0.020905	0.007477	0.006866	0.039063	0.011902	-0.035706	-0.006714	-0.081482	0.020294	-0.004272	-0.01297	0.002899	0.000763	0.021667	0.024719	-0.044556	-0.027466	-0.01236	0.18982	-0.010376	0.19363	-0.06958	-0.00946	-0.13718	-0.060577	-0.11307	-0.009918	-0.042572	-0.013428	-0.003204	-0.025482	-0.098572
10.176	0.02533	0.005188	0.007172	0.011139	0.015564	-0.040436	-0.003662	-0.052032	0.015259	-0.007172	-0.007782	0.00824	0.004425	0.021515	0.024109	0.067902	-0.045319	-0.012207	0.18082	0.046997	0.22919	-0.079346	-0.00946	-0.18646	-0.03479	-0.055237	0.010834	-0.029144	-0.006714	-0.003204	-0.0177	-0.066528
10.177	0.015411	0.002594	0.004425	-0.003357	0.023804	-0.036163	-0.013733	-0.029602	0.013733	-0.00412	-0.013275	0.005951	0.005035	0.022125	0.027161	-0.036926	-0.035553	-0.014343	-0.00412	0.005188	0.15808	-0.07843	-0.006714	-0.30594	-0.030212	-0.046997	0.00412	0	0.001221	-0.002899	-0.000916	-0.02533
10.178	0.030518	0.005951	0.01358	-0.013885	0.036011	-0.029297	-0.007477	-0.010376	0.012207	0.004425	-0.00885	0.005646	0.003815	0.01236	0.029449	-0.009613	-0.050507	-0.023346	-0.081482	-0.14938	0.068512	-0.17029	-0.00061	-0.2713	-0.037994	-0.056458	0.036163	0.008698	0.002899	0.001984	-0.025024	-0.006256
10.179	0.08316	0.009766	0.01297	-0.020752	0.036163	-0.030212	-0.011444	-0.053711	0.010529	0.016937	-0.011292	0.016479	0.006714	0.011902	0.023956	0.089874	-0.05188	-0.030212	-0.44937	0.050812	0.023651	-0.11215	-0.009766	-0.12451	-0.024872	-0.048981	0.04364	0.011902	-0.001984	-0.003357	-0.001526	0.006104
10.18	0.086975	0.01358	0.010834	-0.020599	0.035706	-0.029755	0.007172	-0.045929	0.014038	0.005188	-0.010529	0.016174	-0.007935	0.014038	0.016785	0.019073	-0.051727	-0.036621	-0.79056	0.038452	-0.024109	-0.14954	-0.007019	-0.13001	-0.031738	0.042114	0.070343	0.016022	-0.007172	-0.001831	-0.00351	0.007935
10.181	0.12421	0.00473	0.013733	0.008392	0.027618	-0.023956	0.000763	-0.016632	0.00061	-0.002899	-0.009613	0.015106	-0.020752	0.019379	0.008545	0.10819	-0.047302	-0.02121	-0.616	-0.0354	-0.18173	-0.036926	-0.017242	-0.10529	-0.034485	0.007019	0.021362	0.074615	-0.011444	-0.003357	0.014343	0.007935
10.182	0.13214	0.004883	0.007019	0.008087	0.026245	-0.03067	-0.004425	-0.011444	0.000153	-0.001373	-0.00885	0.004578	-0.03006	0.023499	0.006714	0.12283	-0.050964	-0.019684	-0.34149	0.043945	-0.24429	0.2887	-0.018616	-0.1001	-0.053253	-0.079498	-0.062866	0.15091	-0.020294	0.002136	0.004883	0.051422
10.183	0.15823	-0.000458	0.017395	0.005188	0.037689	-0.028687	-0.012054	0.019989	0.002289	-0.004272	-0.009308	0.02594	-0.024414	0.028534	0.013275	-0.10895	-0.048523	-0.007172	-0.17716	-0.032196	-0.15854	0.17029	-0.028534	-0.16617	-0.083008	-0.045624	-0.054321	0.11093	-0.018005	0.004272	-0.003662	0.058289
10.184	0.26245	0.006714	0.037842	0.000458	0.033417	-0.029907	-0.000458	0.014038	0.009155	-0.001373	-0.014343	0.025482	-0.027466	0.037384	0.022888	-0.055389	-0.037994	-0.009308	-0.30975	0.00885	-0.10025	0.063782	-0.028381	-0.11764	-0.15121	0.018463	-0.053253	0.072479	-0.008698	0.006409	-0.034027	0.025482
10.185	0.21011	0.007172	0.039215	0.000458	0.037384	-0.027313	0.009918	0.033875	0.005951	0.012054	-0.013733	0.025635	-0.02533	0.036163	0.02243	-0.06012	-0.049133	0.000305	-0.52429	0.063324	-0.066223	-0.063782	-0.028381	0.17944	-0.13245	0.003204	-0.027161	0.035553	-0.008087	0.000763	-0.019379	0.02655
10.186	0.15793	0.008698	0.042572	-0.005493	0.040741	-0.037231	0.011292	0.06897	0.003357	0.012817	-0.006256	0.0383	-0.00351	0.034332	0.021667	-0.027771	-0.022736	0.006714	-0.34256	-0.031586	-0.010681	-0.25314	-0.014496	0.40207	-0.13443	-0.039978	0.006256	-0.011749	-0.004578	-0.002747	0.009003	0.017395
10.187	0.078583	0.006561	0.027313	0.018463	0.05249	-0.026398	0.008392	0.050507	0.003204	0.00824	-0.011749	0.006866	0.021057	0.024872	0.021667	-0.041046	-0.007782	0.021515	-0.1973	0.084076	-0.015259	-0.17441	-0.009308	0.40497	-0.14679	-0.06134	0.013733	-0.15869	-0.009613	-0.007782	0.007477	-0.003815
10.188	0.068207	0.006104	-0.006256	0.022736	0.051117	-0.021667	0.002899	0.047455	0.007629	0.003815	-0.009155	0.001068	0.009613	0.0177	0.021515	0.031281	0.007935	0.023651	-0.23666	-0.009613	-0.075684	-0.12131	-0.006256	0.31052	-0.17563	-0.054474	0.026703	-0.14114	-0.019531	-0.002899	0.005341	-0.016327
10.189	0.025635	0.003815	-0.00412	0.010834	0.040588	-0.027924	0.006561	0.078278	0.014343	0.001678	0.005341	0.011749	0.000916	-0.007935	0.035706	0.056458	0.015869	0.028381	-0.26886	0.29556	-0.049744	-0.27756	-0.011139	0.27954	-0.16647	-0.085297	0.022888	-0.047302	-0.035095	-0.001526	0.009308	0.017853
10.19	0.048218	0.003815	-0.006256	0.013275	0.039368	-0.029907	0.01297	0.081329	0.015869	0.007629	-0.001526	-0.014496	0.005493	-0.002289	0.03067	0.121	0.01297	0.034485	-0.22781	0.004425	0.0914	-0.24887	-0.018005	0.19989	-0.11932	-0.12619	-0.021667	0.030518	-0.039063	-0.001373	-0.020905	0.45578
10.191	0.080872	0.006409	-0.011444	0.019684	0.037842	-0.024872	0.013428	0.112	0.017548	0.003815	0.009308	-0.012054	0.048828	0.00061	0.03067	-0.085144	0.00351	0.042114	-0.21881	0.098267	0.060272	-0.29022	-0.011902	0.12985	-0.051117	-0.083923	-0.06073	0.07843	-0.041656	-0.000458	-0.009155	0.096741
10.192	0.092773	0.001526	-0.018005	0.017853	0.037689	-0.031586	0.022278	0.10407	0.01236	0.003815	0.001984	-0.000458	0.093079	0.009155	0.024261	0.046844	0.013733	0.04837	-0.17532	-0.037842	-0.006714	-0.2829	-0.014496	0.11246	0.085144	0.049744	-0.067902	0.074005	-0.030975	-0.000916	0.004883	-0.087128
10.193	0.075684	0.005493	-0.007782	0.032959	0.027313	-0.027466	0.027161	0.1149	0.012512	0.004272	-0.002289	-0.000763	0.093079	0.019684	0.02243	-0.1445	0.018616	0.049896	0.12344	-0.064697	-0.07782	0.13504	-0.014191	0.088654	0.17181	0.1091	-0.022888	0.10437	-0.015869	-0.002899	0.02533	-0.3096
10.194	0.06424	0.005035	-0.002441	0.027924	0.032043	-0.027466	0.029144	0.12451	0.012512	-0.001373	0.001221	0.020294	0.06073	0.002441	0.027161	0.036469	0.013123	0.037842	0.29678	-0.028992	-0.18784	0.28137	-0.019684	0.050812	0.18112	0.1149	-0.000916	0.071259	-0.010986	-0.011139	0.036316	-0.12024
10.195	0.046234	0.006866	-0.00351	0.036621	0.036163	-0.027008	0.020752	0.13992	0.014801	-0.002594	0.006714	0.007019	0.040131	0.003357	0.032959	-0.084381	-0.035095	0.029449	0.31174	0.25223	-0.11841	0.12756	-0.016022	0.055084	0.13321	0.11902	0.02533	-0.024719	0.01358	-0.00351	0.016785	-0.055542
10.196	0.023651	0.005798	-0.007172	0.014954	0.037537	-0.028839	0.007324	0.15198	0.018158	-0.008392	0.000763	-0.007324	0.010986	0.016785	0.033264	-0.13489	0.000305	0.007324	0.41748	0.075836	-0.095367	0.063629	-0.029144	-0.014496	0.065918	0.21255	0.020142	-0.10117	0.032806	-0.012817	0.034027	-0.168
10.197	0.011139	0.003204	0.002747	-0.000305	0.036926	-0.035095	-0.016174	0.20111	0.014038	-0.014343	-0.000916	0.018463	0.006561	0.008545	0.029602	-0.023041	0.000916	-0.021973	0.33234	0.010376	-0.16525	0.18601	-0.015717	0.027313	-0.020905	0.29251	0.016022	-0.11063	0.022736	-0.010223	0.013123	-0.031891
10.198	-0.055237	0.00473	-0.002441	-0.023804	0.020142	-0.030212	-0.027313	0.22278	0.002747	-0.003204	0.002136	0.037537	-0.010834	0.013428	0.032501	0.041656	0.004425	-0.057373	0.10605	-0.029907	-0.14114	0.23361	-0.006561	-0.015411	-0.029449	0.16388	0.023956	-0.08255	0.00351	-0.010529	0.006561	0.29037
10.199	-0.098572	0.007629	-0.006104	-0.012207	0.029144	-0.019531	-0.019989	0.23636	0.006866	-0.006866	0.015411	0.025635	-0.061646	0.006714	0.030975	-0.02182	0.005188	-0.07431	-0.11032	-0.10971	-0.036621	0.13153	-0.001831	0.045471	-0.034027	0.15427	0.018158	-0.071716	-0.003052	-0.002899	-0.016785	0.4039
10.2	-0.060883	0.004272	-0.00412	-0.016632	0.027924	-0.018158	-0.016937	0.22156	0.010681	0.003204	-0.006409	0.010529	-0.078125	0.007935	0.044556	-0.010071	0.018463	-0.077972	-0.15427	0.19272	0.052338	0.10666	-0.00885	0.012817	-0.066071	-0.14832	-0.005646	-0.035706	-0.009003	-0.002899	-0.036926	-0.010071
10.201	-0.078583	0.003967	0.01358	-0.043335	0.038147	-0.020599	-0.002289	0.23468	0.012817	0.009918	0.005341	0.020142	-0.02182	0.012665	0.032349	0.009003	0.017548	-0.058441	-0.18662	0.13458	0.057678	0.10895	-0.003204	0.020599	-0.09964	-0.35232	-0.02121	-0.082703	-0.011444	-0.004425	0.004272	-0.42602
10.202	-0.052338	0.00473	0.015564	-0.021362	0.031586	-0.013885	-0.017853	0.25986	0.014801	0.011749	0.026093	-0.00412	0.030975	0.010986	0.029602	0.012207	0.010376	-0.046082	-0.55298	-0.11932	0.047302	0.057983	-0.009918	0.25085	-0.11078	-0.29388	0.02594	-0.097046	-0.016785	-0.00946	0.041199	-0.24704
